<svg xmlns="http://www.w3.org/2000/svg" viewBox="0 0 56.14 62.08"><defs><style>.cls-1{fill:#e5e3e3;}.cls-2{fill:#8f8387;}.cls-3{fill:#231f20;}.cls-4{fill:#fff;}.cls-5{fill:#4d4549;}.cls-6,.cls-7{fill:none;stroke-miterlimit:10;stroke-width:0.5px;}.cls-6{stroke:#231f20;}.cls-7{stroke:#000;}</style></defs><title>Asset 4</title><g id="Layer_2" data-name="Layer 2"><g id="Layer_7" data-name="Layer 7"><path class="cls-1" d="M10.09,28.32a.72.72,0,0,0,.2.45Zm45.23,8.45a5.22,5.22,0,0,0-.4-.78c-.22-.83-.47-1.73-.72-2.61-.45-1.58-.91-3.1-1.28-4.08l-.16-.39c-.17-.39-.31-.65-.42-.7-.78-.39-9.61-5-9.61-5l-1.63-.48-3.29-.95c-4.7-1.33-11.38-3.14-13.54-3.28a9.46,9.46,0,0,0-3.9.8,55.09,55.09,0,0,0-6,3.07h0l-.61.32A4.65,4.65,0,0,0,12,24.37a4.15,4.15,0,0,0-.38.64,7.76,7.76,0,0,0-.54,1.13h0s0,.05,0,.08a13.38,13.38,0,0,0-.73,2.45.23.23,0,0,0,0,.09h0l0,0-.5.47c-.35.31-.36.58-.56,1.1l0,0-1,1.49,0,.05h0v0h0L5.65,36.36l-.29.52-.44.4L.51,41.17l1.55.41.92.25.51.14,1.14.31.85.23.08,0c1.07.21,12.64,2.49,15.21,3.18S32.94,59,34.62,61.23c.16.22.26.34.26.34l0-.07L37,54.31l.31-.34,6.33-6.55,2.74.93a.21.21,0,0,0,0,.06,2.45,2.45,0,0,0,2,.62c1,0,1.53-.79,2-1.2s1.26-1.47,1.75-1.6c.28-.07.66-.58,1-1.11s.52-.82.7-1.08c.4-.58,1.06-1.62,1.36-2a9.78,9.78,0,0,0,.67-2.37A16.32,16.32,0,0,0,55.32,36.77Z"/><path class="cls-2" d="M6.3,40.51a10,10,0,0,1-.48-2.1c0-.55-.16-.72,0-.77s.07.13.6.2,1.71.18,1.93-.05a3.32,3.32,0,0,1,1-.89,3.23,3.23,0,0,1,1.88.32,21.39,21.39,0,0,0,1.85,1.26c.2,0,1.58.32,1.91.34s1.42-.19,1.66.06.74,1.32.52,1.75-.77,1.41-1.47,1.46a11.35,11.35,0,0,1-2.76-.8S12,40,11.38,39.93s-2,1-2,1a3.15,3.15,0,0,1-1.4.56,3.24,3.24,0,0,1-1.14-.47Z"/><path class="cls-3" d="M9.42,41s.65,0,.9-.23.18-.31.67-.28.47.07,1.06.37a5.14,5.14,0,0,0,1.49.63c.28,0,.86-.19.44-.66a4.06,4.06,0,0,0-2-1.37c-.77-.12-1.2-.39-1.74-.1s-.91.35-.94.83A2,2,0,0,0,9.42,41Z"/><path class="cls-3" d="M6.88,41.05a1.36,1.36,0,0,1-.53-.72,5.27,5.27,0,0,1-.24-.84s0,0-.07,0-.17,0-.19.13-.18.32-.1.47.23.85.51,1.1.3.42.42.36S6.88,41.05,6.88,41.05Z"/><path class="cls-4" d="M11.24,29.5a1.42,1.42,0,0,1-.55.85,11.13,11.13,0,0,0-2.2,2.4c-.52.92-1.06.92-1,1.47a1.12,1.12,0,0,0,.72,1.05,5.36,5.36,0,0,0,1.23.3c.56,0,.87.15.69-.2a1.85,1.85,0,0,0-.48-.6.47.47,0,0,1-.44-.35c-.08-.34-.47-.55-.28-1A9.26,9.26,0,0,1,10,31.94c.15-.24.27-.79.77-1.07a10.05,10.05,0,0,0,1.21-1c.35-.26.71-.14.82-.65A10.28,10.28,0,0,1,13.14,28s1-.12.57-.71a1.58,1.58,0,0,0-1-.64Z"/><path class="cls-2" d="M14.1,29c0,.27-.09.43-.16.45a.59.59,0,0,1-.54-.16h0c-.13-.12-.29-.29-.51-.52s-.6-.67-.78-.91a3.28,3.28,0,0,0-.22-.26c-.22-.24-.46,0-.68.2s-.3.52-.6.63a.54.54,0,0,0-.27.23,13.38,13.38,0,0,1,.73-2.45s0-.05,0-.08h0A7.76,7.76,0,0,1,11.64,25c.76,0,1.78.08,2.13.15.19,0,.31.48.37,1.06v0a.2.2,0,0,0,0,.07v0l0,.34s0,0,0,0A12.08,12.08,0,0,1,14.1,29Z"/><path class="cls-4" d="M19.15,34.62s.08-.68.65.53a9.24,9.24,0,0,0,1.77,2.6c1,1.14,1.31.28,2.69,1.53S25.6,42.39,27,41.76s2.59-1.6,2.3-2.86-.25-1.55-1-1.92-.61-.68-2.28-1.1-3.66-.58-4-1.09.5-.89-.52-1.4-1.85.7-1.85.7Z"/><path class="cls-2" d="M35.39,59c-.15.87-.3,1.74-.49,2.51l0,.07s-.1-.12-.26-.34a.79.79,0,0,1,.08-.16A12.6,12.6,0,0,0,35.39,59Z"/><path class="cls-2" d="M35.41,58.94c.08-.48.16-.94.26-1.4A11.33,11.33,0,0,1,35.41,58.94Z"/><path class="cls-2" d="M35.67,57.53a2.57,2.57,0,0,1,.11-.45C35.74,57.22,35.71,57.37,35.67,57.53Z"/><path class="cls-2" d="M35.78,57.07a6.79,6.79,0,0,1,1-2.45A22.88,22.88,0,0,0,35.78,57.07Z"/><path class="cls-2" d="M44.28,43.38c-.1.43-.17.75-.2.92a4.67,4.67,0,0,1-.27,1A12.22,12.22,0,0,1,43,47.14a3.7,3.7,0,0,1-1.05,1.38c-.66.34-2.95,3.69-4.57,5.45l-.31.34a1.94,1.94,0,0,0-.26.31,7,7,0,0,1,1-1.69c.63-.53.77-4.37.12-6s-7.81.16-7-1.15,6.27-5.58,6.26-8.16-1.62-3.72-2.65-3.51a6.91,6.91,0,0,1-4-.14l-.23-.12a.54.54,0,0,1-.23-.34c-.19-.69.33-2.1.9-3.48l0-.09c.24-.57.49-1.14.7-1.65a9.18,9.18,0,0,0,.45-1.36s0,0,0,0a.66.66,0,0,0,0-.33c-.16-1.07,2.16-1.12,2.69-1.06A47.15,47.15,0,0,1,42.41,29l.05,0a2.31,2.31,0,0,1,.68.77v0c.49.93.36,2.14,1.57,3.85C46.1,35.63,44.81,41.06,44.28,43.38Z"/><path class="cls-2" d="M25.51,23l-.41,0a35,35,0,0,0-5.81.13,16.12,16.12,0,0,0-4.14,1.52,6.16,6.16,0,0,0-.61.8.11.11,0,0,0,0,0l0,0a.13.13,0,0,0-.07.09l-.07.1a2.18,2.18,0,0,0-.12.22.36.36,0,0,1,0,.11c0,.07,0,.15,0,.22v0a.2.2,0,0,0,0,.07v0c0,.1,0,.21,0,.33a3.79,3.79,0,0,0-2-.68,4,4,0,0,0-1.07.16A7.76,7.76,0,0,1,11.64,25a4.15,4.15,0,0,1,.38-.64,4.65,4.65,0,0,1,1.7-1.63l.61-.32h0a55.09,55.09,0,0,1,6-3.07,11.31,11.31,0,0,1,1.94,1,2,2,0,0,1,.66.58,7.31,7.31,0,0,0,1.44,1.28l.1.06C24.82,22.49,25.16,22.74,25.51,23Z"/><path class="cls-2" d="M31.13,26.64l.54.17-.54-.12a6,6,0,0,1-2-.83A21.24,21.24,0,0,0,31.13,26.64Z"/><path class="cls-2" d="M31.78,26.84l.36.07A1.69,1.69,0,0,1,31.78,26.84Z"/><path class="cls-2" d="M32.21,26.92a8,8,0,0,1,1.33.23Z"/><path class="cls-2" d="M43.86,46.76l-.19.66s-1-.4-2.07-.85S40.45,40,40,37.77s-.07-5.86-.79-7.48-1-1.45-1.51-1.83-1.15-.27-2-.66a11.26,11.26,0,0,0-2.16-.65,19.15,19.15,0,0,1,3.81.79,5.34,5.34,0,0,1,2.93,3.7s.59,3.87,1.09,5.75,1.22,1.87,1.92,4.76A16.44,16.44,0,0,1,43.86,46.76Z"/><path class="cls-4" d="M27.51,36.52l-2.75,3.32L21,37.07v0a32.21,32.21,0,0,0,5.14,0A11.55,11.55,0,0,0,27.51,36.52Z"/><path class="cls-5" d="M54.2,33.38a2.31,2.31,0,0,0-.58-.08s-1.11-.35-1.21-.07-.6.24-1.21.44h0a3.56,3.56,0,0,0-1.35.7c-.88.8-1,.8-1.64.86S47,36.49,47,36.49l-1,1.15-.29,1.27a8,8,0,0,1-.59,1.49c-.37.71-.19,1.62-.51,2.58-.14.4-.24.47-.33.4s-.19-.43-.19-.43L42.94,31.48s-.17-.87-.38-1.91h0c0-.16-.07-.32-.1-.49-.15-.72-.3-1.45-.43-2a4.14,4.14,0,0,0-.23-.78c-.19-.23-4.13-2.78-4-4.49l3.29.95,1.63.48s8.83,4.57,9.61,5c.11.05.25.31.42.7l.16.39C53.29,30.28,53.75,31.8,54.2,33.38Z"/><path class="cls-3" d="M54.2,33.38a2.31,2.31,0,0,0-.58-.08s-1.11-.35-1.21-.07-.6.24-1.21.44h0a3.56,3.56,0,0,0-1.35.7c-.88.8-1,.8-1.64.86S47,36.49,47,36.49l-1,1.15-.29,1.27a8,8,0,0,1-.59,1.49c-.37.71-.19,1.62-.51,2.58-.14.4-.24.47-.33.4s-.19-.43-.19-.43L42.94,31.48s.09-.73.19-1.63h0c.08-.67.15-1.42.2-2a3.39,3.39,0,0,0,0-1.1,33,33,0,0,1-2.23-3.95l1.63.48s8.83,4.57,9.61,5c.11.05.25.31.42.7l.16.39C53.29,30.28,53.75,31.8,54.2,33.38Z"/><path class="cls-3" d="M5.65,36.36l.3-.1-.4.85-.63.17.44-.4Z"/><path class="cls-3" d="M8.12,32h0l0,0Z"/><path class="cls-3" d="M8.19,31.91l1-1.49s0,0,0,0A7.94,7.94,0,0,1,8.19,31.91Z"/><path class="cls-3" d="M52.51,33l-.1.28-.25.65-1-.21h0l-.47-.1-7.57-3.71h0l-.57-.28h0L35.3,26a3.18,3.18,0,0,1-.88,0,2.14,2.14,0,0,0-1.77.63,1.55,1.55,0,0,0-.23.34h0A6,6,0,0,0,32,28.43c-.07.51-.14,1.06-.25,1.56a.14.14,0,0,0,0,.06A32.61,32.61,0,0,1,30.44,34a13.81,13.81,0,0,1-.82,1.83A3.75,3.75,0,0,1,28.2,37a9.44,9.44,0,0,1-1.18.54,1.59,1.59,0,0,1-.41.11A31.71,31.71,0,0,1,22,37.8h-.64a15.33,15.33,0,0,1-3.64-1,12.63,12.63,0,0,1-2-1.4C15,34.89,14,32,13.93,31.75s-.33-1.43-.53-2.44h0c-.13-.71-.25-1.29-.25-1.29s-.35-.87-.51-1.14a3,3,0,0,0-1.12-.64.51.51,0,0,0-.45,0s0-.05,0-.08h0A7.76,7.76,0,0,1,11.64,25a4.15,4.15,0,0,1,.38-.64h.08c2.23,0,4.42-1.29,6.2-1.7a40.08,40.08,0,0,1,6.21-.43l1.18,0c1.47,0,6.5.81,6.76.82l3,.34L42,27.09l1.31.73Z"/><path class="cls-4" d="M27.51,36.52a11.55,11.55,0,0,1-1.39.53,32.21,32.21,0,0,1-5.14,0l-1.33-2.12s-1.73-.54-.47-.91,3.94-.73,5.21.32A34.61,34.61,0,0,0,27.51,36.52Z"/><path class="cls-1" d="M30.15,33a11.12,11.12,0,0,1-1,2.17,3.35,3.35,0,0,1-.86,1c-.1.06-.41.2-.77.36a34.61,34.61,0,0,1-3.12-2.18c-1.27-1.05-3.94-.68-5.21-.32s.47.91.47.91L21,37.05c-.45,0-.86-.08-1.18-.12a6.61,6.61,0,0,1-3.6-2.15c-.37-.48-.61-1.11-.86-1.42a14.11,14.11,0,0,1-.68-2c-.14-.33-.29-1.47-.52-2.19a2.07,2.07,0,0,1-.09-1.34,5,5,0,0,0,.11-1.15c2.44,1.45,5.29,4.78,6.32,5.36,1.35.74-.65-6.36,1-7.06s5.47-.65,6,0a6.69,6.69,0,0,0,1.68.94l-.28-.23c-.82-.76-2.16-1.75-3.36-2.64A19.05,19.05,0,0,1,29.4,24.2c1.17.47.82.56,1.57,2a1.93,1.93,0,0,1,.16.48v.05C31.45,28.46,30.37,32.14,30.15,33Z"/><path class="cls-2" d="M31.3,27.14c-.78-.35-2.95-.57-3.17-.81-.54-.6-2.83-1.09-4.39-.4S21.66,32.58,20.48,32s-3.88-3.91-6.32-5.36c0-.13,0-.24,0-.34a1.49,1.49,0,0,1,.4-.92,5.23,5.23,0,0,1,.61-.8,16.59,16.59,0,0,1,4.14-1.52A37.29,37.29,0,0,1,25.1,23l.4.05c1.2.88,2.54,1.87,3.37,2.63C29,25.73,31.21,27.06,31.3,27.14Z"/><path class="cls-3" d="M21.4,22s-.56-.12.05-.86A2.59,2.59,0,0,1,23.16,20c.5,0,2.8-.18,4-.05a18.22,18.22,0,0,0,2.82.28,5,5,0,0,1,3.06,1c1.05.78,1.1.79,1.9,1.32s1.79,1.15,1.79,1.15l.26.45L34.89,23l-1.76-.7A3.26,3.26,0,0,0,31.38,22a12.22,12.22,0,0,1-2.65-.16,9.08,9.08,0,0,0-2.43-.15,10.84,10.84,0,0,1-1.45.45c-.22,0-2.93.15-3.12.14S21.4,22,21.4,22Z"/><path class="cls-6" d="M21.75,29.45a4.19,4.19,0,0,1,1.5.09,26.75,26.75,0,0,0,5.13.31,14.86,14.86,0,0,1,2.73.1c.59.05,2,.08,2,.08S32.59,28.6,32,28.4a22.86,22.86,0,0,1-3.12-1.58,4.91,4.91,0,0,0-2.74-.95,9,9,0,0,0-3,1.43A13.29,13.29,0,0,0,21.75,29.45Z"/><path class="cls-3" d="M24,26.84a1.88,1.88,0,0,0-.28,1.26c.17.54,0,1.13.75,1.31s1.79.61,2.28.21c.55-.22.61.07.93-1.07s.59-1,0-1.72-.26-.53-.58-.7C26.14,25.59,24,26.84,24,26.84Z"/><path class="cls-3" d="M51.7,35.44a8.66,8.66,0,0,0-1.41,1.43c-.15.35.79,1.45.93,1.18a12.69,12.69,0,0,0,.62-1.61A3.34,3.34,0,0,0,51.7,35.44Z"/><path class="cls-2" d="M55.87,39.7a9.78,9.78,0,0,1-.67,2.37c-.3.35-1,1.39-1.36,2-.18.26-.42.68-.7,1.08s-.73,1-1,1.11c-.49.13-1.32,1.19-1.75,1.6s-1,1.22-2,1.2a2.45,2.45,0,0,1-2-.62.21.21,0,0,1,0-.06c-.25-.42.25-.85.79-1a2.66,2.66,0,0,0,1.14-.82c.22-.27,1.22-.93,1.64-.59s.94-.06,1.3-.16.34-.22.92-.55a2.16,2.16,0,0,0,.91-.95c0-.12.59-1.29.64-1.41a2.64,2.64,0,0,0,.22-1,4.15,4.15,0,0,0-.1-1.6A3.86,3.86,0,0,0,53.5,39c-.24-.71-.36-.88-.16-1.31a2.4,2.4,0,0,0,.08-1.33,3.25,3.25,0,0,0-.41-.66s0-.39-.21-.52-.25-.44,0-.63,1.28-.44,1.41.09A6.88,6.88,0,0,0,54.92,36a5.22,5.22,0,0,1,.4.78A16.32,16.32,0,0,1,55.87,39.7Z"/><path class="cls-2" d="M49.58,37.85,48.9,39.1a2.53,2.53,0,0,0-.3,1,22.44,22.44,0,0,1-.17,2.76c-.18.35-.89.79-1.2,1.3s-1.06,1.34-.74,1.4.94.38,1.27.08.53-.45.79-.68a1,1,0,0,0,.11-1.2c-.26-.46.43-.53.61-.81a3.74,3.74,0,0,0,.27-1.1,1.13,1.13,0,0,1-.54-1,4.26,4.26,0,0,1,.28-1.27c.12-.11.2-.08.4,0s0,.29.36,1.1.77,1.47.84,1.68.07.12,0,.36-.43.33-.5.89-.2,1-.55,1a3.78,3.78,0,0,0,1.26-.17c.29-.14,1-.38,1.14-.85s.61-1.36.62-1.53a1.71,1.71,0,0,0-.35-1.56c-.6-.68-1.16-1.55-1.55-1.68A7.12,7.12,0,0,1,49.58,37.85Z"/><path class="cls-3" d="M48.66,43.81c-.18.35-1.12-.11-1.43.4s-1.06,1.34-.74,1.4.94.38,1.27.08.53-.45.79-.68a1,1,0,0,0,.11-1.2Z"/><path class="cls-7" d="M55.87,39.7l-2.73,5.42L48.43,49l-2-.68-2.74-.93L37.34,54l-.31.34L34.9,61.5l0,.07s-.1-.12-.26-.34C32.94,59,23.23,46.37,20.77,45.71s-14.14-3-15.21-3.18l-.08,0-.85-.23L3.49,42,3,41.83l-.92-.25L.51,41.17l4.41-3.89.44-.4.29-.52L8.11,32h0v0h0l0-.05,1-1.49,0,0,1.06-1.57,0,0h0a.23.23,0,0,1,0-.09,13.38,13.38,0,0,1,.73-2.45s0-.05,0-.08h0A7.76,7.76,0,0,1,11.64,25a4.15,4.15,0,0,1,.38-.64,4.65,4.65,0,0,1,1.7-1.63l.61-.32h0a55.09,55.09,0,0,1,6-3.07,9.46,9.46,0,0,1,3.9-.8c2.16.14,8.84,1.95,13.54,3.28l3.29.95,1.63.48s8.83,4.57,9.61,5c.11.05.25.31.42.7l.16.39c.37,1,.83,2.5,1.28,4.08.25.88.5,1.78.72,2.61C55.46,38,55.87,39.7,55.87,39.7Z"/><path class="cls-7" d="M14.34,22.41h0"/><line class="cls-7" x1="13.53" y1="0.25" x2="13.52" y2="0.25"/><line class="cls-7" x1="52.92" y1="29.3" x2="52.76" y2="28.91"/></g></g></svg>