<svg xmlns="http://www.w3.org/2000/svg" viewBox="0 0 68.27 86.2"><defs><style>.cls-1{fill:#8f8387;}.cls-2{fill:#231f20;}.cls-3,.cls-8{fill:#e5e3e3;}.cls-4{fill:#4d4549;}.cls-5,.cls-7{fill:none;}.cls-5{stroke:#000;}.cls-5,.cls-7,.cls-8{stroke-miterlimit:10;stroke-width:0.5px;}.cls-6{fill:#fff;}.cls-7,.cls-8{stroke:#231f20;}</style></defs><title>Asset 6</title><g id="Layer_2" data-name="Layer 2"><g id="Layer_1-2" data-name="Layer 1"><path class="cls-1" d="M13.19,86.18s0,0,0,0h0v0Z"/><path class="cls-2" d="M13.19,86.18s0,0,0,0h0v0Z"/><path class="cls-3" d="M13.19,86.18s0,0,0,0h0v0Z"/><path class="cls-1" d="M13.19,86.18s0,0,0,0h0v0Z"/></g><g id="Layer_7" data-name="Layer 7"><path class="cls-3" d="M34.45,60.62c-1.69-2.24-3.6-4.72-7.82-5.85C24.19,54.12,19,53,15.06,52.18H15L14.11,52,13,51.75l-.52-.11-.93-.19-1.57-.32a11,11,0,0,0,0,2.59A57.42,57.42,0,0,0,11,59.62,26.92,26.92,0,0,0,12,63.44c.48,1,2.92,4.82,3,6.67s-.27,1,.92,3.45,1.76,2.9,3.2,3.38a10.7,10.7,0,0,0,3.31.81c.43-.06,2.71,0,4.13,0h.05a1.08,1.08,0,0,0,.24,0H27l.73,0,.15-.08,6.6-3.38.08-.56C34.84,71.41,35.91,62.56,34.45,60.62Z"/><path class="cls-2" d="M13.64,59.62a.91.91,0,0,1,.1-.42,8,8,0,0,1,1.12-1.63,3.38,3.38,0,0,1,.79-.54,8,8,0,0,0-1,.87c-.09.16-.62.87-.73,1.1S13.64,59.62,13.64,59.62Z"/><path class="cls-1" d="M26.63,60s-1-.55-1.64-.91-1.24-.29-1.58-.8-.56-.44-.73-.44-.59.1-.91.11-.77-.33-.9-.33a7.27,7.27,0,0,0-.83,0c-.39,0-.91.4-1.35.14s-.86-.38-1.08-.16a4,4,0,0,1-.63.5,11.41,11.41,0,0,1-1.33.64,2.42,2.42,0,0,0-1,.78,2,2,0,0,0-.17.64.55.55,0,0,0,.36.42,9.16,9.16,0,0,0,1.18,0l.84-.08.74-.34h.75l.75-.05.35-.11L20,60l.42-.05.7-.06.62.22.43-.15.42-.17.48-.06h1.2Z"/><path class="cls-2" d="M16.73,60.54a.55.55,0,0,1-.47-.25c-.21-.28-.34-.36-.38-.37s-.34-.15-.18-.3a.75.75,0,0,1,.69-.2,2.44,2.44,0,0,1,.95.2c.5.24,0,.3.75.41s.82.16,1.17,0,1.38-.14,1.47-.31.1-.33.35-.37a5.05,5.05,0,0,1,1,0c.19.05,1,.09,1,.09a7.8,7.8,0,0,0,.92.13c.12,0,1.74.27,1.85.27s1.91.39,2.14.36.44-.2.75-.21a2,2,0,0,1,.91.16,3.69,3.69,0,0,1,.66.48l.39.31s-.95.4-1.14.45a2.26,2.26,0,0,1-.79.1c-.15,0-.5-.35-.5-.44s-.12-.36-.22-.39-.86-.26-1-.32a1.88,1.88,0,0,0-.67-.18c-.21,0-1.39-.39-1.49-.39s-.42,0-.68,0-.82,0-.82,0l-.68.11s0,0-.35.19a1.31,1.31,0,0,1-.93,0A.94.94,0,0,0,21,60l-2.36.31a1.15,1.15,0,0,0-.47,0c-.21.08-.4,0-.63.11A2.86,2.86,0,0,1,16.73,60.54Z"/><path class="cls-1" d="M15.9,63.24s-1-.56-.86-.86.7-.65,1-.59,1.26.46,1.39.46-.13.13,1.1-.35,1.12-.91,2.06-1.12,1.1-.16,1.45,0,1.82-.93,1.82-.93h.88l1.7.36.82,1.34-4.15,1.69-2.79.2-2.67.43Z"/><path class="cls-2" d="M27.78,60.62s-.14,0-.24.18a8,8,0,0,1-.66,1,14.3,14.3,0,0,1-1.58,1c-.3.14-2.34.66-2.34.66a20.26,20.26,0,0,0,4.23-1,12,12,0,0,1,1.24-.85,1.22,1.22,0,0,1,.38,0s.17-.38,0-.54A4.49,4.49,0,0,0,27.78,60.62Z"/><path class="cls-4" d="M26.05,60.32c.05.16.2,0,.15.3s.16.32-.14.38-.37.27-.84.24-.72-.29-.91-.13-.42.89-.91.92-1,.89-1.42.9-.73.52-1.61.32-1.42-.44-1.57-.47a3.93,3.93,0,0,0-.67-.12,3.29,3.29,0,0,1-.65.07,2.53,2.53,0,0,1-.74-.19c-.11,0,0,.16.15.31a1.71,1.71,0,0,0,.48.39c.09,0,.22.2-.11.2a2,2,0,0,1-.77-.16,1.45,1.45,0,0,0-.59,0,1.31,1.31,0,0,0,.37.28,7.73,7.73,0,0,0,1.13.35c.32,0,2-.18,2.53-.2l1.51-.07c.24,0,.46,0,.75-.08s.58,0,.77-.08a29.63,29.63,0,0,0,3.38-.95,13.42,13.42,0,0,0,1.76-1.58c.16-.23-1.06-.7-1.06-.7S26,60.16,26.05,60.32Z"/><path class="cls-2" d="M25.43,58.24S22.93,57.13,22.6,57a11.33,11.33,0,0,1-1.3-.58c-.13-.09.84.49.92.54S25.43,58.24,25.43,58.24Z"/><path class="cls-1" d="M34.53,73.73l-.08.56-6.6,3.38a8.77,8.77,0,0,1-.88.06h-.14a1.08,1.08,0,0,1-.24,0h-.05l-.62-.15s.37-1,.79-2.09S31.89,74.19,34.53,73.73Z"/><path class="cls-5" d="M34.53,73.73l-.08.56-6.6,3.38-.15.08-.73,0h-.43c-1.42,0-3.7,0-4.13,0a10.7,10.7,0,0,1-3.31-.81c-1.44-.48-2-.88-3.2-3.38S15.08,72,15,70.11s-2.55-5.63-3-6.67A26.92,26.92,0,0,1,11,59.62a57.42,57.42,0,0,1-1.09-5.9,11,11,0,0,1,0-2.59l1.57.32.93.19.52.11,1.15.24.87.18h.08c4,.83,9.13,1.94,11.57,2.59,4.22,1.13,6.13,3.61,7.82,5.85C35.91,62.56,34.84,71.41,34.53,73.73Z"/><path class="cls-2" d="M13.71,61.54a1.88,1.88,0,0,0,.35-.43c.19-.29.24-.78.57-.48s.4.53.58.64-.17.46-.28.46-.31-.08-.44-.08-.14.05-.34.12S13.59,61.67,13.71,61.54Z"/><path class="cls-3" d="M19.27,36.79a.79.79,0,0,0,.2.45ZM64.5,45.24a4.37,4.37,0,0,0-.4-.78c-.22-.83-.47-1.73-.71-2.61-.46-1.58-.92-3.1-1.29-4.08l-.16-.39a1.57,1.57,0,0,0-.42-.7l-9.6-5-1.64-.48L47,30.29C42.29,29,35.61,27.15,33.46,27a9.54,9.54,0,0,0-3.91.8,56,56,0,0,0-6,3.07h0l-.61.32a4.65,4.65,0,0,0-1.7,1.63,5.14,5.14,0,0,0-.38.64,9,9,0,0,0-.54,1.13h0a.26.26,0,0,0,0,.08,13.71,13.71,0,0,0-.74,2.45.92.92,0,0,0,0,.09h0l0,0a6.45,6.45,0,0,1-.5.48c-.35.3-.35.57-.56,1.1l0,0-1,1.48,0,.06h0v0h0l-2.45,4.36-.29.52-.45.4L9.7,49.64l1.55.41.91.25.51.14,1.14.31.86.23.08,0c1.06.21,12.64,2.49,15.2,3.18S42.12,67.49,43.8,69.7l.26.34,0-.07,2.13-7.19.31-.34,6.33-6.55,2.75.93,0,.06a2.48,2.48,0,0,0,2,.62c1,0,1.53-.8,2-1.2s1.26-1.47,1.75-1.6c.27-.07.65-.58,1-1.11s.52-.82.69-1.08c.41-.58,1.06-1.62,1.36-2a9.81,9.81,0,0,0,.68-2.37A16.33,16.33,0,0,0,64.5,45.24Z"/><path class="cls-1" d="M15.49,49a9.9,9.9,0,0,1-.49-2.1c0-.55-.16-.72.05-.77s.07.13.6.2,1.72.18,1.93-.06a3.56,3.56,0,0,1,1-.88,3.22,3.22,0,0,1,1.88.32A21.39,21.39,0,0,0,22.31,47c.2,0,1.58.32,1.91.34s1.42-.19,1.67.06.73,1.32.52,1.74-.77,1.42-1.48,1.46a10.88,10.88,0,0,1-2.75-.79s-1-1.26-1.62-1.36-1.95,1-1.95,1a3.15,3.15,0,0,1-1.4.56,3.24,3.24,0,0,1-1.14-.47Z"/><path class="cls-2" d="M18.61,49.43s.64,0,.9-.23.18-.31.66-.28a2,2,0,0,1,1.06.36,5,5,0,0,0,1.49.64c.29,0,.86-.19.45-.66a4.13,4.13,0,0,0-2-1.37c-.77-.13-1.2-.39-1.74-.1s-.9.35-.93.83A2,2,0,0,0,18.61,49.43Z"/><path class="cls-2" d="M16.07,49.52a1.31,1.31,0,0,1-.53-.72,4.86,4.86,0,0,1-.25-.84s0,0-.06,0-.18,0-.2.13-.18.32-.1.47a3.67,3.67,0,0,0,.52,1.1c.28.26.29.42.41.35S16.07,49.52,16.07,49.52Z"/><path class="cls-6" d="M20.43,38a1.47,1.47,0,0,1-.56.85,10.86,10.86,0,0,0-2.19,2.4c-.52.91-1.07.92-1,1.47s.4,1,.72,1.05a5.06,5.06,0,0,0,1.23.29c.57,0,.88.16.7-.2a2,2,0,0,0-.49-.59.45.45,0,0,1-.43-.35c-.09-.34-.48-.55-.29-1a10.69,10.69,0,0,1,1-1.47c.16-.23.27-.78.77-1.06a10.05,10.05,0,0,0,1.21-1c.36-.26.71-.14.82-.65a11.7,11.7,0,0,1,.38-1.21s1-.12.56-.71a1.55,1.55,0,0,0-1-.64Z"/><path class="cls-1" d="M23.29,37.49c0,.26-.1.43-.16.45a.57.57,0,0,1-.54-.17h0a4.82,4.82,0,0,1-.51-.51c-.36-.38-.6-.68-.79-.91s-.15-.19-.21-.26c-.23-.24-.47,0-.69.2s-.3.52-.6.63a.49.49,0,0,0-.27.23,13.71,13.71,0,0,1,.74-2.45.26.26,0,0,1,0-.08h0a9,9,0,0,1,.54-1.13c.76,0,1.78.08,2.14.15.19,0,.3.48.36,1.06v0a.2.2,0,0,0,0,.07v0l0,.34s0,0,0,0A13,13,0,0,1,23.29,37.49Z"/><path class="cls-6" d="M28.33,43.09s.08-.68.65.52a9,9,0,0,0,1.78,2.61c1,1.14,1.31.28,2.68,1.53s1.34,3.11,2.71,2.48,2.59-1.6,2.31-2.86-.26-1.55-1.05-1.92-.61-.68-2.27-1.1-3.67-.59-4-1.09.49-.89-.52-1.4-1.86.69-1.86.69Z"/><path class="cls-1" d="M44.58,67.46c-.16.87-.31,1.74-.5,2.51l0,.07-.26-.34a1.19,1.19,0,0,1,.08-.16A12.84,12.84,0,0,0,44.58,67.46Z"/><path class="cls-1" d="M44.59,67.41c.08-.48.17-1,.26-1.4A8.45,8.45,0,0,1,44.59,67.41Z"/><path class="cls-1" d="M44.85,66a2.86,2.86,0,0,1,.11-.46C44.92,65.69,44.89,65.84,44.85,66Z"/><path class="cls-1" d="M45,65.53a6.81,6.81,0,0,1,1-2.44A23.69,23.69,0,0,0,45,65.53Z"/><path class="cls-1" d="M53.46,51.85c-.09.43-.17.75-.19.92a6.3,6.3,0,0,1-.27,1,13.36,13.36,0,0,1-.86,1.85,3.7,3.7,0,0,1-1,1.38c-.65.34-3,3.69-4.57,5.45l-.31.34a2,2,0,0,0-.26.31,6.62,6.62,0,0,1,1-1.69c.62-.54.76-4.37.11-6s-7.8.17-7-1.14,6.26-5.58,6.25-8.16-1.62-3.72-2.64-3.52a6.81,6.81,0,0,1-4-.13c-.08,0-.16-.08-.24-.12a.61.61,0,0,1-.23-.34c-.18-.69.33-2.1.91-3.48l0-.09c.25-.57.49-1.14.7-1.65a8.33,8.33,0,0,0,.46-1.36s0,0,0,0a1,1,0,0,0,0-.33C41.12,34,43.45,33.92,44,34A47.41,47.41,0,0,1,51.6,37.5l0,0a2.2,2.2,0,0,1,.68.77l0,0c.48.93.35,2.14,1.57,3.85C55.29,44.1,54,49.53,53.46,51.85Z"/><path class="cls-1" d="M34.69,31.46l-.41,0a35,35,0,0,0-5.81.13,16.12,16.12,0,0,0-4.14,1.52,6.16,6.16,0,0,0-.61.8l0,0,0,.05a.22.22,0,0,0-.07.09l-.06.1a1.16,1.16,0,0,0-.13.22l0,.11a1.16,1.16,0,0,0-.06.22v0a.2.2,0,0,0,0,.07v0c0,.09,0,.2,0,.33a3.93,3.93,0,0,0-2-.69,4.45,4.45,0,0,0-1.08.17,9,9,0,0,1,.54-1.13,5.14,5.14,0,0,1,.38-.64,4.65,4.65,0,0,1,1.7-1.63l.61-.32h0a56,56,0,0,1,6-3.07,10.32,10.32,0,0,1,1.94,1,2,2,0,0,1,.66.58,7.85,7.85,0,0,0,1.45,1.28l.09.06C34,31,34.34,31.21,34.69,31.46Z"/><path class="cls-1" d="M40.31,35.11l.54.17-.53-.12a6.06,6.06,0,0,1-2-.83C39,34.63,39.72,34.91,40.31,35.11Z"/><path class="cls-1" d="M41,35.31l.37.07A1.88,1.88,0,0,1,41,35.31Z"/><path class="cls-1" d="M41.4,35.38a9.77,9.77,0,0,1,1.32.24C42.28,35.54,41.83,35.47,41.4,35.38Z"/><path class="cls-1" d="M53,55.23l-.19.66s-1-.4-2.06-.85-1.16-6.57-1.65-8.8-.06-5.86-.79-7.48-1-1.45-1.51-1.83-1.14-.27-2-.66a11.26,11.26,0,0,0-2.16-.65,18.46,18.46,0,0,1,3.81.79,5.37,5.37,0,0,1,2.94,3.7s.58,3.87,1.08,5.75,1.22,1.87,1.93,4.76A16.61,16.61,0,0,1,53,55.23Z"/><path class="cls-6" d="M36.7,45l-2.76,3.32-3.77-2.77v0a33.45,33.45,0,0,0,5.14,0A13.59,13.59,0,0,0,36.7,45Z"/><path class="cls-4" d="M63.39,41.85a2.42,2.42,0,0,0-.59-.08s-1.1-.35-1.21-.08-.59.25-1.21.45h0a3.45,3.45,0,0,0-1.34.7c-.88.8-1,.8-1.65.85S56.14,45,56.14,45l-1,1.15-.28,1.27a8.94,8.94,0,0,1-.59,1.49c-.38.71-.19,1.62-.52,2.58-.14.39-.24.47-.33.4s-.19-.43-.19-.43L52.12,40S52,39.08,51.74,38h0c0-.16-.07-.32-.1-.49-.14-.72-.3-1.45-.43-2a3.27,3.27,0,0,0-.23-.78c-.19-.23-4.13-2.78-4-4.49l3.29.95,1.64.48,9.6,5a1.57,1.57,0,0,1,.42.7l.16.39C62.47,38.75,62.93,40.27,63.39,41.85Z"/><path class="cls-2" d="M63.39,41.85a2.42,2.42,0,0,0-.59-.08s-1.1-.35-1.21-.08-.59.25-1.21.45h0a3.45,3.45,0,0,0-1.34.7c-.88.8-1,.8-1.65.85S56.14,45,56.14,45l-1,1.15-.28,1.27a8.94,8.94,0,0,1-.59,1.49c-.38.71-.19,1.62-.52,2.58-.14.39-.24.47-.33.4s-.19-.43-.19-.43L52.12,40l.2-1.63h0c.08-.67.15-1.42.2-2a3.55,3.55,0,0,0,0-1.1,34.05,34.05,0,0,1-2.24-3.95l1.64.48,9.6,5a1.57,1.57,0,0,1,.42.7l.16.39C62.47,38.75,62.93,40.27,63.39,41.85Z"/><path class="cls-2" d="M14.84,44.83l.29-.1-.4.84-.63.18.45-.4Z"/><path class="cls-2" d="M17.31,40.44h0l0,0Z"/><path class="cls-2" d="M17.37,40.37l1-1.48v0A7.08,7.08,0,0,1,17.37,40.37Z"/><path class="cls-2" d="M61.7,41.42l-.11.27-.25.66-1-.21h0l-.46-.1-7.57-3.71h0L51.74,38h0l-7.25-3.55a3.72,3.72,0,0,1-.88,0,2.09,2.09,0,0,0-1.77.63,1.28,1.28,0,0,0-.24.34h0a6,6,0,0,0-.38,1.48c-.07.51-.14,1.06-.25,1.55,0,0,0,0,0,.07a35.21,35.21,0,0,1-1.32,3.9,14.25,14.25,0,0,1-.82,1.82,3.72,3.72,0,0,1-1.43,1.2,8.72,8.72,0,0,1-1.17.54,2.51,2.51,0,0,1-.42.11,31.66,31.66,0,0,1-4.62.18h-.64a15.46,15.46,0,0,1-3.64-1,13.11,13.11,0,0,1-2-1.4c-.72-.54-1.69-3.41-1.79-3.68s-.32-1.43-.52-2.45h0c-.14-.71-.26-1.28-.26-1.28a11.17,11.17,0,0,0-.51-1.14,3,3,0,0,0-1.12-.65.51.51,0,0,0-.44,0,.26.26,0,0,1,0-.08h0a9,9,0,0,1,.54-1.13,5.14,5.14,0,0,1,.38-.64h.08c2.24,0,4.43-1.29,6.21-1.7a40,40,0,0,1,6.2-.43l1.19,0c1.46,0,6.49.81,6.75.82l3,.34,6.61,3.7,1.31.73Z"/><path class="cls-6" d="M36.7,45a13.59,13.59,0,0,1-1.4.53,33.45,33.45,0,0,1-5.14,0L28.83,43.4s-1.73-.54-.47-.91,3.94-.73,5.21.32A36.48,36.48,0,0,0,36.7,45Z"/><path class="cls-3" d="M39.34,41.46a10.55,10.55,0,0,1-1,2.16,3.12,3.12,0,0,1-.86,1,6,6,0,0,1-.76.37,36.48,36.48,0,0,1-3.13-2.18c-1.27-1.05-3.93-.68-5.21-.32s.47.91.47.91l1.33,2.12c-.45,0-.85-.08-1.18-.13a6.55,6.55,0,0,1-3.6-2.14c-.37-.48-.6-1.12-.85-1.42a12.74,12.74,0,0,1-.68-2c-.14-.32-.3-1.47-.52-2.18a1.94,1.94,0,0,1-.09-1.34,6.47,6.47,0,0,0,.11-1.15c2.44,1.45,5.28,4.78,6.32,5.36,1.34.74-.66-6.36,1-7.06s5.47-.65,6,0a6.39,6.39,0,0,0,1.67.94c-.09-.08-.19-.15-.27-.23-.83-.76-2.17-1.75-3.37-2.64a18.27,18.27,0,0,1,3.89,1.21c1.18.47.82.56,1.57,2a1.93,1.93,0,0,1,.16.48s0,0,0,0C40.63,36.93,39.56,40.61,39.34,41.46Z"/><path class="cls-1" d="M40.49,35.61c-.79-.35-3-.57-3.18-.81-.54-.61-2.83-1.09-4.39-.4s-2.07,6.65-3.26,6.11c-1-.57-3.88-3.91-6.32-5.36,0-.13,0-.24,0-.34a1.44,1.44,0,0,1,.39-.92,6.16,6.16,0,0,1,.61-.8,16.9,16.9,0,0,1,4.14-1.52,36.1,36.1,0,0,1,5.81-.13l.41,0c1.2.88,2.54,1.87,3.36,2.63C38.14,34.2,40.39,35.53,40.49,35.61Z"/><path class="cls-2" d="M30.58,30.49s-.56-.11.05-.85a2.59,2.59,0,0,1,1.71-1.16c.51,0,2.8-.18,4-.05a21.12,21.12,0,0,0,2.83.28,5,5,0,0,1,3,1c1.05.78,1.11.79,1.91,1.32s1.78,1.15,1.78,1.15l.27.45L44.07,31.5l-1.76-.7s-.35-.29-1.75-.32a12.07,12.07,0,0,1-2.64-.16,8.74,8.74,0,0,0-2.44-.15,10.84,10.84,0,0,1-1.45.45c-.21,0-2.93.15-3.12.14S30.58,30.49,30.58,30.49Z"/><path class="cls-7" d="M30.94,37.92a3.88,3.88,0,0,1,1.49.09,26.92,26.92,0,0,0,5.14.31,14.92,14.92,0,0,1,2.73.1c.59,0,1.94.08,1.94.08s-.46-1.43-1.1-1.63A22.27,22.27,0,0,1,38,35.29a4.93,4.93,0,0,0-2.74-.95,9.24,9.24,0,0,0-3,1.42A13.53,13.53,0,0,0,30.94,37.92Z"/><path class="cls-2" d="M33.22,35.31a1.85,1.85,0,0,0-.29,1.26c.18.54,0,1.13.75,1.31s1.8.61,2.28.21c.55-.22.61.07.93-1.07s.6-1,0-1.72-.25-.53-.58-.7C35.32,34.06,33.22,35.31,33.22,35.31Z"/><path class="cls-2" d="M60.88,43.91a8.66,8.66,0,0,0-1.41,1.43c-.14.35.8,1.45.93,1.18A11.34,11.34,0,0,0,61,44.91,3.34,3.34,0,0,0,60.88,43.91Z"/><path class="cls-1" d="M65.06,48.17a9.81,9.81,0,0,1-.68,2.37c-.3.35-.95,1.39-1.36,2-.17.26-.42.68-.69,1.08s-.74,1-1,1.11c-.49.13-1.33,1.19-1.75,1.6s-1,1.22-2,1.2a2.48,2.48,0,0,1-2-.62l0-.06c-.26-.43.24-.85.78-1A2.54,2.54,0,0,0,57.52,55c.22-.27,1.22-.93,1.64-.59s1-.06,1.3-.16.34-.22.92-.55a2.21,2.21,0,0,0,.91-.95c.05-.12.6-1.29.64-1.41a2.66,2.66,0,0,0,.22-1,3.92,3.92,0,0,0-.1-1.59,3.56,3.56,0,0,0-.37-1.26c-.23-.71-.35-.88-.16-1.31a2.4,2.4,0,0,0,.08-1.33,2.85,2.85,0,0,0-.41-.66s0-.39-.21-.52-.25-.44,0-.63,1.28-.44,1.41.09a7.5,7.5,0,0,0,.67,1.34,4.37,4.37,0,0,1,.4.78A16.33,16.33,0,0,1,65.06,48.17Z"/><path class="cls-1" d="M58.77,46.32l-.68,1.25a2.62,2.62,0,0,0-.31,1,19.17,19.17,0,0,1-.17,2.76c-.18.35-.89.79-1.2,1.3s-1.06,1.34-.73,1.4.93.38,1.26.08.53-.45.79-.68a1,1,0,0,0,.11-1.2c-.25-.46.44-.54.61-.81a3.74,3.74,0,0,0,.27-1.1,1.13,1.13,0,0,1-.54-1,4.26,4.26,0,0,1,.28-1.27c.13-.11.21-.08.4,0s0,.29.37,1.1.76,1.47.83,1.68.08.12,0,.36-.42.33-.5.89-.19,1-.55,1A4.56,4.56,0,0,0,60.26,53c.29-.14,1-.38,1.14-.86s.6-1.35.61-1.52A1.68,1.68,0,0,0,61.66,49c-.6-.68-1.16-1.55-1.55-1.68A7,7,0,0,1,58.77,46.32Z"/><path class="cls-2" d="M57.84,52.28c-.18.35-1.12-.11-1.43.4s-1.06,1.34-.73,1.4.93.38,1.26.08.53-.45.79-.68a1,1,0,0,0,.11-1.2Z"/><path class="cls-5" d="M65.06,48.17l-2.73,5.42L57.61,57.5l-2-.68-2.75-.93-6.33,6.55-.31.34L44.08,70l0,.07-.26-.34C42.12,67.49,32.42,54.84,30,54.18s-14.14-3-15.2-3.18l-.08,0-.86-.23-1.14-.31-.51-.14-.91-.25L9.7,49.64l4.4-3.89.45-.4.29-.52,2.45-4.36h0v0h0l0-.06,1-1.48,0,0,1.06-1.58,0,0h0a.92.92,0,0,1,0-.09,13.71,13.71,0,0,1,.74-2.45.26.26,0,0,1,0-.08h0a9,9,0,0,1,.54-1.13,5.14,5.14,0,0,1,.38-.64,4.65,4.65,0,0,1,1.7-1.63l.61-.32h0a56,56,0,0,1,6-3.07,9.54,9.54,0,0,1,3.91-.8c2.15.14,8.83,1.95,13.53,3.28l3.29.95,1.64.48,9.6,5a1.57,1.57,0,0,1,.42.7l.16.39c.37,1,.83,2.5,1.29,4.08.24.88.49,1.78.71,2.61C64.65,46.51,65.06,48.17,65.06,48.17Z"/><path class="cls-5" d="M23.52,30.88h0"/><line class="cls-5" x1="22.71" y1="8.72" x2="22.7" y2="8.72"/><line class="cls-5" x1="62.1" y1="37.77" x2="61.94" y2="37.38"/><path class="cls-3" d="M66.05,16.43C65.61,14.5,53.71,4.94,53.71,4.94S47.6,2.21,44.07,1.08,36.44-.2,33.7,1.65a63.11,63.11,0,0,1-8.45,4.2,6.85,6.85,0,0,0-3.14,1l-.71.38h0a2.1,2.1,0,0,0-1,.55,14,14,0,0,0-2.35,3.28c2,1.21,5.72,6.11,6.07,6.4.18.15,1.23.76,2.23,1.6,1.22,1,2.36,2.35,1.79,3.54-.06.13-.13.26-.21.4a27,27,0,0,1-1.46,2.32c-1.31,1.89-2.8,3.8-2.94,4a54.28,54.28,0,0,1,5.83-3.43,9.44,9.44,0,0,1,3.85-1c2.16,0,8.94,1.41,13.71,2.46l3.34.75,1.66.38s9.09,4,9.89,4.37c.11,0,.27.29.46.67l.18.38c.43,1,1,2.45,1.53,4a.48.48,0,0,1,.32.18c.13.23.84,1.44,1.1,1.87l0,.07,0,.08a.1.1,0,0,1,0,0,6.45,6.45,0,0,0,.53-2.32v-.12c.76-3.44,2-9.28,2-9.69C67.94,27.3,66.49,18.36,66.05,16.43Z"/><path class="cls-1" d="M29.38,25.89a54.28,54.28,0,0,0-5.83,3.43c.14-.18,1.63-2.09,2.94-4,.56.08,1,.14,1.19.15A6.83,6.83,0,0,1,29.38,25.89Z"/><path class="cls-4" d="M67.48,29.23c-.11.83-.64,3.19-.91,4.42a21.45,21.45,0,0,0-.52,3.93v.12A6.45,6.45,0,0,1,65.52,40a.1.1,0,0,0,0,0l0-.08,0-.07c-.26-.43-1-1.64-1.1-1.87a.48.48,0,0,0-.32-.18c-.55-1.55-1.1-3-1.53-4l-.18-.38c-.19-.38-.35-.63-.46-.67-.8-.34-9.89-4.37-9.89-4.37l-1.66-.38-3.34-.75a.68.68,0,0,1,0-.2l-4.63-5.35c-2-.44-4.56.85-6.06,1-1.13.12-5.4,0-8.32.24.08-.14.15-.27.21-.4.57-1.19-.57-2.52-1.79-3.54-1-.84-2.05-1.45-2.23-1.6-.35-.29-4.06-5.19-6.07-6.4A14,14,0,0,1,20.42,7.8l1-.55h0l.71-.38a6.85,6.85,0,0,1,3.14-1c.34,0,.65,0,1,.05,1,.06,2.84-1,4.82-2A16.82,16.82,0,0,1,36,2c1.18-.1,5.79,1.34,6.66,1.82s4.33.7,5,.7,2.57.22,3.43.22S53,5.42,54.25,7a28.25,28.25,0,0,1,3.16,4.18c.59,1.23,1.18,3.64,3.57,4.93s1.46.21,1.84.37,2.41.86,2.62,1.29a13.79,13.79,0,0,1,.61,3.48C66.07,22.3,67.59,28.4,67.48,29.23Z"/><path class="cls-2" d="M67.48,29.23c-.11.83-.64,3.19-.91,4.42a21.45,21.45,0,0,0-.52,3.93v.12A6.45,6.45,0,0,1,65.52,40a.1.1,0,0,0,0,0l0-.08,0-.07c-.26-.43-1-1.64-1.1-1.87a.48.48,0,0,0-.32-.18c-.55-1.55-1.1-3-1.53-4l-.18-.38c-.19-.38-.35-.63-.46-.67-.8-.34-9.89-4.37-9.89-4.37l-1.66-.38a8.29,8.29,0,0,1-.85-2c-.38-1.72-.81-4.11-.86-4.33a24.69,24.69,0,0,0-1.45-4.34c-.48-.64-3.64-3.64-4.43-3.64s-1.83.8-2.58,1.18-2.2,2.09-3.43,2.78-1.4.43-3.06,1.24-2.25-.11-4-.17a9.85,9.85,0,0,0-3.29.27c-1-.84-2.05-1.45-2.23-1.6-.35-.29-4.06-5.19-6.07-6.4A14,14,0,0,1,20.42,7.8l1-.55h0l.71-.38a6.85,6.85,0,0,1,3.14-1c.34,0,.65,0,1,.05,1,.06,2.84-1,4.82-2A16.82,16.82,0,0,1,36,2c1.18-.1,5.79,1.34,6.66,1.82s4.33.7,5,.7,2.57.22,3.43.22S53,5.42,54.25,7a28.25,28.25,0,0,1,3.16,4.18c.59,1.23,1.18,3.64,3.57,4.93s1.46.21,1.84.37,2.41.86,2.62,1.29a13.79,13.79,0,0,1,.61,3.48C66.07,22.3,67.59,28.4,67.48,29.23Z"/><path class="cls-5" d="M23.54,29.33h0c.14-.18,1.63-2.09,2.94-4A27,27,0,0,0,28,23c.08-.14.15-.27.21-.4.57-1.19-.57-2.52-1.79-3.54-1-.84-2.05-1.45-2.23-1.6-.35-.29-4.06-5.19-6.07-6.4"/><path class="cls-5" d="M62.29,33.49l.18.38,3,6.05,0,.07,0,.08a.1.1,0,0,1,0,0c0-.21.25-1.15.53-2.43h0c.76-3.44,2-9.28,2-9.69-.08-.59-1.53-9.53-2-11.46S53.71,4.94,53.71,4.94,47.6,2.21,44.07,1.08,36.44-.2,33.7,1.65a63.11,63.11,0,0,1-8.45,4.2,25.08,25.08,0,0,1-3.85,1.4h0a2.1,2.1,0,0,0-1,.55,14,14,0,0,0-2.35,3.28"/><path class="cls-3" d="M24.34,19.2c-1-.84-2.05-1.45-2.23-1.6-.35-.29-4.06-5.19-6.07-6.4a1.62,1.62,0,0,0-.67-.27,2.34,2.34,0,0,0-1,.16L12,12.87l0,0-.08.12-.12.2-.09.16C9.92,16.33.25,32.24.25,34c0,2,2,4.78,2.25,6.95s6.35,8,6.35,8L13,44.85l.42-.42.26-.54,2.19-4.5h0s0,0,0,0l0-.06.91-1.54,0,0c.17-.54.16-.81.49-1.14s.41-.43.47-.5l0,0h0a.51.51,0,0,1,0-.09,13.86,13.86,0,0,1,.59-2.49.26.26,0,0,1,0-.08h0A7.62,7.62,0,0,1,19,32.2a4.12,4.12,0,0,1,.34-.66,4.61,4.61,0,0,1,1.6-1.73l.59-.36h0c.14-.18,1.63-2.09,2.94-4a27,27,0,0,0,1.46-2.32c.08-.14.15-.27.21-.4C26.7,21.55,25.56,20.22,24.34,19.2Z"/><path class="cls-1" d="M24.46,25.46c-1.31,1.89-2.8,3.8-2.94,4h0l-.59.36a4.61,4.61,0,0,0-1.6,1.73,4.12,4.12,0,0,0-.34.66,7.62,7.62,0,0,0-.47,1.16h0a2.19,2.19,0,0,0-1.35,1.35,7.51,7.51,0,0,0-.35,1.72A8,8,0,0,1,16,39.06s0,0,0,0a3,3,0,0,1-.15.32c-.83,1.64-4.25-.4-5-.86a1.06,1.06,0,0,1-.29-.27A4,4,0,0,1,10,36.41v0c0-.44,0-.83,0-1s-.09-2,0-3.66c0-.27,0-.53.07-.79a8.58,8.58,0,0,1,.11-.92,4.31,4.31,0,0,1,.43-1.39,2.44,2.44,0,0,1,.28-.39c.91-1,2.27-.69,4.19-2.32C16.78,24.4,22,25.12,24.46,25.46Z"/><path class="cls-4" d="M26.13,22.74c-.06.13-.13.26-.21.4a13.73,13.73,0,0,0-2.28.28c-2,.54-5.52-1.27-6.91.44S9.47,28,9,28.57s-.27-1.28-.7-3.59.91-6.26,1.12-7.44,1.35-2.25,2.2-4a1,1,0,0,0,.07-.15l.09-.16.12-.2.08-.12,0,0,2.29-1.78a2.34,2.34,0,0,1,1-.16,1.62,1.62,0,0,1,.67.27c2,1.21,5.72,6.11,6.07,6.4.18.15,1.23.76,2.23,1.6C25.56,20.22,26.7,21.55,26.13,22.74Z"/><path class="cls-2" d="M24.34,19.2c-.34.09-.72.21-1.16.36a18,18,0,0,1-4.71.93,13.4,13.4,0,0,0-3.54.37c-2,.54-1.77,2-3.16,3.7S9.47,28,9,28.57s-.27-1.28-.7-3.59.91-6.26,1.12-7.44,1.35-2.25,2.2-4a1,1,0,0,0,.07-.15l.09-.16.12-.2.08-.12,0,0,2.29-1.78a2.34,2.34,0,0,1,1-.16,1.62,1.62,0,0,1,.67.27c2,1.21,5.72,6.11,6.07,6.4C22.29,17.75,23.34,18.36,24.34,19.2Z"/><path class="cls-2" d="M19.32,31.54a4.12,4.12,0,0,0-.34.66,7.62,7.62,0,0,0-.47,1.16h0a.26.26,0,0,0,0,.08c-.1,0-.19.11-.31.16s-.48.68-.56,1.44a1.88,1.88,0,0,0,0,.55.72.72,0,0,0,.23.43h0l0,0c-.06.07-.21.24-.47.5s-.32.6-.49,1.14l0,0L16,39.29l0,.06s0,0,0,0v0s0-.1.09-.25,0,0,0,0l.06-.17a22.29,22.29,0,0,0,.43-3.68,3.36,3.36,0,0,0-1.12-2.53c-.59-.7-1.68-.8-2.9-1a11.12,11.12,0,0,0-2.5,0c-.86.08-1.65.19-2,.19a9,9,0,0,0-3.92,1.77,4.52,4.52,0,0,0-.76,3c0,.94.48,2.87.56,3.9a9.65,9.65,0,0,0,1.45,3.31c.6,1.11,3.29,1,4.76,1a12.66,12.66,0,0,0,3.59-1l-.26.54-.42.42a13.28,13.28,0,0,1-3,.69,9.58,9.58,0,0,1-4.18-.76c-1.55-.73-1.63-2.17-2.05-3a36.87,36.87,0,0,1-1.19-5.14A3.44,3.44,0,0,0,2,35.23c-.16-.1-.14.08-.18-.06s0-1.68,0-2S2,33,2,33l4.66-1.62A27.69,27.69,0,0,1,10,30.9a7.52,7.52,0,0,1,1.27,0l.23,0,.61.1h0A43.74,43.74,0,0,0,19.32,31.54Z"/><path class="cls-2" d="M14.26,31s1.05-.08.89-.67.4-.86-1-1.48a4.67,4.67,0,0,0-2.28-.61,4.74,4.74,0,0,0-1.42,0c-.3.13-.43-.11-.67.32s-.46.74-.24,1,1.1.52,1.34.79.35.56.61.62S14.26,31,14.26,31Z"/><path class="cls-8" d="M16,37a3.67,3.67,0,0,0-.84-1.24,8.29,8.29,0,0,0-2.37-1.21,4.21,4.21,0,0,0-2.21.32A2.57,2.57,0,0,0,10,37c.12.61.24.93.24,1.09s.44.28,1,0a4.4,4.4,0,0,0,1-.64,8,8,0,0,1,1.16-.29C14.16,37.08,16,37,16,37Z"/><path class="cls-2" d="M10.57,35.7s-.11.06,0,.49.18,1,.37,1.09a2,2,0,0,0,.72.35c.34.1,1-.35,1.16-.53s.48-.41.53-.73a5.49,5.49,0,0,0,.16-.67,8.64,8.64,0,0,0-.22-1l-2.06,0-.61.24Z"/><path class="cls-5" d="M15.89,39.36h0s0,0,0,0Z"/><path class="cls-5" d="M21.51,29.45h0c.14-.18,1.63-2.09,2.94-4a27,27,0,0,0,1.46-2.32c.08-.14.15-.27.21-.4.57-1.19-.57-2.52-1.79-3.54-1-.84-2.05-1.45-2.23-1.6-.35-.29-4.06-5.19-6.07-6.4a1.62,1.62,0,0,0-.67-.27,2.34,2.34,0,0,0-1,.16A6.24,6.24,0,0,0,12,12.87l0,0-.08.12-.12.2-.09.16C9.92,16.33.25,32.24.25,34c0,2,2,4.78,2.25,6.95s6.35,8,6.35,8"/><line class="cls-5" x1="19.37" y1="7.37" x2="19.36" y2="7.37"/></g></g></svg>