<svg xmlns="http://www.w3.org/2000/svg" viewBox="0 0 50.42 41.13"><defs><style>.cls-1{fill:#e5e3e3;}.cls-2{fill:#8f8387;}.cls-3{fill:#4d4549;}.cls-4{fill:#231f20;}.cls-5{fill:none;stroke:#000;stroke-miterlimit:10;stroke-width:0.5px;}</style></defs><title>Asset 5</title><g id="Layer_2" data-name="Layer 2"><g id="Layer_7" data-name="Layer 7"><path class="cls-1" d="M48.2,16.43C47.76,14.5,35.86,4.94,35.86,4.94s-6.11-2.73-9.64-3.86S18.59-.2,15.85,1.65A63.11,63.11,0,0,1,7.4,5.85a6.85,6.85,0,0,0-3.14,1l-.71.38h0a2.1,2.1,0,0,0-1,.55A14,14,0,0,0,.22,11.08c2,1.21,5.72,6.11,6.07,6.4.18.15,1.23.76,2.23,1.6,1.22,1,2.36,2.35,1.79,3.54-.06.13-.13.26-.21.4a27,27,0,0,1-1.46,2.32c-1.31,1.89-2.8,3.8-2.94,4a54.28,54.28,0,0,1,5.83-3.43,9.44,9.44,0,0,1,3.85-1c2.16,0,8.94,1.41,13.71,2.46l3.34.75,1.66.38s9.09,4,9.89,4.37c.11,0,.27.29.46.67l.18.38c.43,1,1,2.45,1.53,4a.48.48,0,0,1,.32.18c.13.23.84,1.44,1.1,1.87l0,.07,0,.08a.1.1,0,0,1,0,0,6.45,6.45,0,0,0,.53-2.32v-.12c.76-3.44,2-9.28,2-9.69C50.09,27.3,48.64,18.36,48.2,16.43Z"/><path class="cls-2" d="M11.53,25.89A54.28,54.28,0,0,0,5.7,29.32c.14-.18,1.63-2.09,2.94-4,.56.08,1,.14,1.19.15A6.83,6.83,0,0,1,11.53,25.89Z"/><path class="cls-3" d="M49.63,29.23c-.11.83-.64,3.19-.91,4.42a21.45,21.45,0,0,0-.52,3.93v.12A6.45,6.45,0,0,1,47.67,40a.1.1,0,0,0,0,0l0-.08,0-.07c-.26-.43-1-1.64-1.1-1.87a.48.48,0,0,0-.32-.18c-.55-1.55-1.1-3-1.53-4l-.18-.38c-.19-.38-.35-.63-.46-.67-.8-.34-9.89-4.37-9.89-4.37l-1.66-.38-3.34-.75a.68.68,0,0,1,0-.2l-4.63-5.35c-2-.44-4.56.85-6.06,1-1.13.12-5.4,0-8.32.24.08-.14.15-.27.21-.4.57-1.19-.57-2.52-1.79-3.54-1-.84-2-1.45-2.23-1.6-.35-.29-4.06-5.19-6.07-6.4A14,14,0,0,1,2.57,7.8l1-.55h0l.71-.38a6.85,6.85,0,0,1,3.14-1c.34,0,.65,0,1,.05,1,.06,2.84-1,4.82-2a16.82,16.82,0,0,1,5-1.93c1.18-.1,5.79,1.34,6.66,1.82s4.33.7,5,.7,2.57.22,3.43.22,1.82.69,3.11,2.3a28.25,28.25,0,0,1,3.16,4.18c.59,1.23,1.18,3.64,3.57,4.93s1.46.21,1.84.37,2.41.86,2.62,1.29a13.79,13.79,0,0,1,.61,3.48C48.22,22.3,49.74,28.4,49.63,29.23Z"/><path class="cls-4" d="M49.63,29.23c-.11.83-.64,3.19-.91,4.42a21.45,21.45,0,0,0-.52,3.93v.12A6.45,6.45,0,0,1,47.67,40a.1.1,0,0,0,0,0l0-.08,0-.07c-.26-.43-1-1.64-1.1-1.87a.48.48,0,0,0-.32-.18c-.55-1.55-1.1-3-1.53-4l-.18-.38c-.19-.38-.35-.63-.46-.67-.8-.34-9.89-4.37-9.89-4.37l-1.66-.38a8.29,8.29,0,0,1-.85-2c-.38-1.72-.81-4.11-.86-4.33a24.69,24.69,0,0,0-1.45-4.34c-.48-.64-3.64-3.64-4.43-3.64S23,14.58,22.26,15s-2.2,2.09-3.43,2.78-1.4.43-3.06,1.24-2.25-.11-4-.17a9.85,9.85,0,0,0-3.29.27c-1-.84-2-1.45-2.23-1.6-.35-.29-4.06-5.19-6.07-6.4A14,14,0,0,1,2.57,7.8l1-.55h0l.71-.38a6.85,6.85,0,0,1,3.14-1c.34,0,.65,0,1,.05,1,.06,2.84-1,4.82-2a16.82,16.82,0,0,1,5-1.93c1.18-.1,5.79,1.34,6.66,1.82s4.33.7,5,.7,2.57.22,3.43.22,1.82.69,3.11,2.3a28.25,28.25,0,0,1,3.16,4.18c.59,1.23,1.18,3.64,3.57,4.93s1.46.21,1.84.37,2.41.86,2.62,1.29a13.79,13.79,0,0,1,.61,3.48C48.22,22.3,49.74,28.4,49.63,29.23Z"/><path class="cls-5" d="M5.69,29.33h0c.14-.18,1.63-2.09,2.94-4A27,27,0,0,0,10.1,23c.08-.14.15-.27.21-.4.57-1.19-.57-2.52-1.79-3.54-1-.84-2-1.45-2.23-1.6-.35-.29-4.06-5.19-6.07-6.4"/><path class="cls-5" d="M44.44,33.49l.18.38,3,6.05,0,.07,0,.08a.1.1,0,0,1,0,0c0-.21.25-1.15.53-2.43h0c.76-3.44,2-9.28,2-9.69-.08-.59-1.53-9.53-2-11.46S35.86,4.94,35.86,4.94s-6.11-2.73-9.64-3.86S18.59-.2,15.85,1.65A63.11,63.11,0,0,1,7.4,5.85a25.08,25.08,0,0,1-3.85,1.4h0a2.1,2.1,0,0,0-1,.55A14,14,0,0,0,.22,11.08"/></g></g></svg>