<svg xmlns="http://www.w3.org/2000/svg" viewBox="0 0 79.38 89.31"><defs><style>.cls-1,.cls-7{fill:#e5e3e3;}.cls-2{fill:#231f20;}.cls-3{fill:#4d4549;}.cls-4{fill:#8f8387;}.cls-5{fill:#fff;}.cls-6{fill:none;}.cls-6,.cls-7{stroke:#231f20;stroke-miterlimit:10;stroke-width:0.5px;}</style></defs><title>Asset 1</title><g id="Layer_2" data-name="Layer 2"><g id="Layer_1-2" data-name="Layer 1"><rect class="cls-1" width="79.38" height="89.31"/><path class="cls-2" d="M19.63,63a1,1,0,0,1,.09-.42A7.44,7.44,0,0,1,20.85,61a4.3,4.3,0,0,1,.78-.55,10.26,10.26,0,0,0-.95.87c-.09.17-.62.87-.73,1.11S19.63,63,19.63,63Z"/><path class="cls-2" d="M22.71,64a.53.53,0,0,1-.47-.24,1.3,1.3,0,0,0-.37-.38s-.35-.14-.19-.29a.71.71,0,0,1,.7-.2,2.33,2.33,0,0,1,.95.2c.49.24,0,.29.75.4s.81.16,1.16.06,1.38-.14,1.48-.31.09-.34.34-.37a4.51,4.51,0,0,1,1,0,9.8,9.8,0,0,0,1,.09A7.8,7.8,0,0,0,30,63c.12,0,1.74.27,1.85.27s1.92.39,2.14.36a5.29,5.29,0,0,1,.75-.21,1.83,1.83,0,0,1,.92.16,3.31,3.31,0,0,1,.65.48,4.86,4.86,0,0,1,.39.31s-.95.4-1.14.45a2.26,2.26,0,0,1-.79.1c-.15,0-.49-.35-.49-.45s-.12-.36-.23-.38-.86-.26-1-.33a2.05,2.05,0,0,0-.67-.17c-.21,0-1.39-.39-1.48-.39a5.14,5.14,0,0,0-.69,0c-.25,0-.81,0-.81,0l-.69.11s0,0-.34.18a1.29,1.29,0,0,1-.94,0,.94.94,0,0,0-.5-.11l-2.35.31a1.11,1.11,0,0,0-.47,0c-.22.08-.4,0-.63.12A3.29,3.29,0,0,1,22.71,64Z"/><path class="cls-2" d="M33.77,64s-.14,0-.25.18a8.75,8.75,0,0,1-.66,1,13.42,13.42,0,0,1-1.58,1c-.29.13-2.34.66-2.34.66a19.78,19.78,0,0,0,4.23-1A9.37,9.37,0,0,1,34.42,65a1.15,1.15,0,0,1,.37,0s.18-.38,0-.54A4.28,4.28,0,0,0,33.77,64Z"/><path class="cls-3" d="M32,63.74c.06.16.2,0,.15.29s.16.32-.13.39-.38.27-.85.24-.72-.29-.91-.13-.41.88-.91.92-1,.88-1.42.9-.72.52-1.61.32a15.34,15.34,0,0,1-1.56-.47,2.79,2.79,0,0,0-.67-.12,3.4,3.4,0,0,1-.66.07,2.62,2.62,0,0,1-.74-.19c-.1,0,0,.16.15.31a1.71,1.71,0,0,0,.48.39c.1,0,.22.2-.1.2a2.08,2.08,0,0,1-.78-.16,1.28,1.28,0,0,0-.59,0,1.25,1.25,0,0,0,.38.28,7.19,7.19,0,0,0,1.12.35c.32,0,2-.18,2.53-.21L27.43,67l.75-.08c.29,0,.58,0,.76-.08a30.33,30.33,0,0,0,3.39-1,14.85,14.85,0,0,0,1.75-1.58c.16-.23-1.06-.7-1.06-.7S32,63.58,32,63.74Z"/><path class="cls-2" d="M31.41,61.65s-2.5-1.1-2.82-1.21a11.57,11.57,0,0,1-1.31-.58c-.13-.09.85.49.93.54S31.41,61.65,31.41,61.65Z"/><path class="cls-4" d="M21.66,53.54a9.87,9.87,0,0,1-.61-2.07c0-.54-.21-.7,0-.76s.08.12.61.16,1.72.07,1.93-.18a3.36,3.36,0,0,1,.94-.94,3.28,3.28,0,0,1,1.9.2c.44.24,1.72,1.15,1.92,1.16s1.59.22,1.92.22,1.41-.28,1.67,0,.82,1.27.63,1.71-.69,1.45-1.39,1.54a11.16,11.16,0,0,1-2.8-.62s-1.07-1.21-1.69-1.27S24.8,53.8,24.8,53.8a3.14,3.14,0,0,1-1.37.64,3.22,3.22,0,0,1-1.16-.4"/><path class="cls-2" d="M24.8,53.8s.64,0,.88-.28.17-.32.65-.32a1.93,1.93,0,0,1,1.08.3,4.84,4.84,0,0,0,1.53.54c.28,0,.84-.24.4-.68a4.11,4.11,0,0,0-2.07-1.25c-.78-.08-1.22-.32-1.75,0s-.88.41-.88.89A1.94,1.94,0,0,0,24.8,53.8Z"/><path class="cls-2" d="M22.27,54a1.35,1.35,0,0,1-.57-.68,5.05,5.05,0,0,1-.3-.83h-.06c-.09,0-.18,0-.19.14s-.16.33-.07.47a3.62,3.62,0,0,0,.58,1.08c.3.24.32.4.43.32S22.27,54,22.27,54Z"/><path class="cls-5" d="M25.93,42.25a1.44,1.44,0,0,1-.51.88,11.38,11.38,0,0,0-2.05,2.53c-.46,1-1,1-.92,1.53s.46,1,.78,1a5.18,5.18,0,0,0,1.25.23c.56,0,.88.1.68-.25a2,2,0,0,0-.52-.56.47.47,0,0,1-.46-.32c-.1-.34-.5-.52-.34-1a9.32,9.32,0,0,1,1-1.53c.14-.24.22-.8.7-1.11a9.36,9.36,0,0,0,1.15-1.06c.34-.28.7-.18.78-.7a10.06,10.06,0,0,1,.3-1.23s1-.18.53-.74a1.59,1.59,0,0,0-1-.59Z"/><path class="cls-4" d="M24.94,41.58s0-.2.28-.33.34-.48.56-.67.42-.47.67-.24.51.6,1.07,1.11.78.71,1.1.6.16-4.2-.43-4.28-3,0-3,0L24.09,40Z"/><path class="cls-5" d="M34.12,46.89s0-.68.68.48a9.16,9.16,0,0,0,1.93,2.49c1.05,1.09,1.33.2,2.78,1.37s1.52,3,2.85,2.31,2.49-1.75,2.13-3S44.14,49,43.33,48.7s-.65-.65-2.34-1-3.69-.36-4.06-.84.45-.93-.6-1.37-1.81.81-1.81.81Z"/><path class="cls-4" d="M32.57,81.16a16.17,16.17,0,0,0,4.59-.72c2.86-.81,2.84-1.53,4.69-2.09s5.7-1.29,5.7-1.29a5.33,5.33,0,0,0,3.6-3c.84-2.41.5-6.82,2-8.56s3.85-5.66,4.52-6.07S59.52,56.17,59.6,55s1.76-8.43,0-10.6-1.08-3.6-2.59-4.53a48,48,0,0,0-7.82-3.07c-.53,0-2.85.16-2.62,1.23s-2.71,6.66-1.45,7.36,3.27.26,4.27,0,2.68.78,2.85,3.35-5.06,7.15-5.75,8.51,6.34-.88,7.09.73.84,5.44.25,6A15.14,15.14,0,0,0,52,68.77a14.3,14.3,0,0,1-.76,3.58c-.37.83-.23,1.47-.59,2s-.2.8-1.79,1.58-5.24.48-7.44,1-8.32.91-8.73,2S31.9,81,31.9,81Z"/><path class="cls-4" d="M39.77,34.9l-.41,0a36.07,36.07,0,0,0-5.79.48,16.25,16.25,0,0,0-4,1.77A5.59,5.59,0,0,0,29,38a1.49,1.49,0,0,0-.34.94c0,.1,0,.21,0,.34a3.91,3.91,0,0,0-2-.56c-2.57.23-2.58,2.09-2.76,3.31a8.58,8.58,0,0,1-1,3c-.83,1.64-4.25-.4-5-.86-.92-.59-.89-2.69-.88-3.22s-.29-5.23.6-6.76,2.34-.9,4.47-2.71,9.47-.33,10.6-.27,4,1.15,4.39,1.81A13.88,13.88,0,0,0,39.77,34.9Z"/><path class="cls-4" d="M45.6,38.2l.55.14-.54-.09a5.91,5.91,0,0,1-2-.71A20.52,20.52,0,0,0,45.6,38.2Z"/><path class="cls-4" d="M46.26,38.36l.37,0A2.38,2.38,0,0,1,46.26,38.36Z"/><path class="cls-4" d="M46.7,38.41a10,10,0,0,1,1.34.15C47.59,38.51,47.14,38.47,46.7,38.41Z"/><path class="cls-4" d="M59.52,57.52l-.15.67s-1-.34-2.11-.73S55.71,51,55.09,48.78s-.42-5.85-1.24-7.42-1.1-1.39-1.62-1.74-1.16-.2-2-.54A11.8,11.8,0,0,0,48,38.56a19.29,19.29,0,0,1,3.85.56A5.36,5.36,0,0,1,55,42.64s.82,3.83,1.43,5.67,1.33,1.8,2.21,4.64A16.36,16.36,0,0,1,59.52,57.52Z"/><path class="cls-5" d="M42.59,48.28,40,51.76l-3.93-2.54v0a31.73,31.73,0,0,0,5.13-.31A11.58,11.58,0,0,0,42.59,48.28Z"/><path class="cls-3" d="M52,32.79c-.39,1.71,4,4.21,4.23,4.44s1.45,5.09,1.45,5.09L59.52,53.7s.25,1,.52,0,0-1.88.36-2.61a8.12,8.12,0,0,0,.49-1.53l.22-1.28.89-1.2s.52-1.24,1.15-1.34.77-.1,1.6-1,2.4-1,2.49-1.3,1.21,0,1.21,0,.75,0,.91.22l1.18,2a6.69,6.69,0,0,0,.55-2.37,20.53,20.53,0,0,1,.52-4c.27-1.23.8-3.6.91-4.42S71.11,28,71.09,27a13.88,13.88,0,0,0-.61-3.49c-.21-.42-2.25-1.12-2.62-1.28s.56.91-1.84-.38-3-3.69-3.57-4.93a27.72,27.72,0,0,0-3.16-4.17C58,11.09,57,10.39,56.18,10.39s-2.73-.21-3.43-.21-4.14-.22-5-.7-5.48-1.93-6.66-1.82a16.72,16.72,0,0,0-5,1.93c-2,1-3.8,2-4.82,2s-1.77-.27-4.13,1-6.26,3.69-6.48,4.17-1.07.59-1.93,2.36-2,2.84-2.2,4S15,28.22,15.41,30.53s.27,4.11.7,3.58,6.29-3,7.69-4.7,4.87.09,6.91-.44,9.1-.36,10.6-.52,4.06-1.45,6.06-1"/><path class="cls-2" d="M59.52,53.7s.25,1,.52,0,0-1.88.36-2.61a8.12,8.12,0,0,0,.49-1.53l.22-1.28.89-1.2s.52-1.24,1.15-1.34.77-.1,1.6-1,2.4-1,2.49-1.3,1.21,0,1.21,0,.75,0,.91.22l1.18,2a6.69,6.69,0,0,0,.55-2.37,20.53,20.53,0,0,1,.52-4c.27-1.23.8-3.6.91-4.42S71.11,28,71.09,27a13.88,13.88,0,0,0-.61-3.49c-.21-.42-2.25-1.12-2.62-1.28s.56.91-1.84-.38-3-3.69-3.57-4.93a27.72,27.72,0,0,0-3.16-4.17C58,11.09,57,10.39,56.18,10.39s-2.73-.21-3.43-.21-4.14-.22-5-.7-5.48-1.93-6.66-1.82a16.72,16.72,0,0,0-5,1.93c-2,1-3.8,2-4.82,2s-1.77-.27-4.13,1-6.26,3.69-6.48,4.17-1.07.59-1.93,2.36-2,2.84-2.2,4S15,28.22,15.41,30.53s.27,4.11.7,3.58,1.34-2.29,2.73-4S20,27,22,26.41s2-.21,3.54-.37a18.38,18.38,0,0,0,4.71-.93,9.82,9.82,0,0,1,4.45-.63c1.71.06,2.3,1,4,.16s1.82-.53,3.06-1.23,2.67-2.41,3.42-2.79,1.81-1.17,2.59-1.17,4,3,4.43,3.64a26.16,26.16,0,0,1,1.45,4.34c0,.21.48,2.61.86,4.33s3.1,5.55,3.32,5.78a35.4,35.4,0,0,1-.11,4.78Z"/><path class="cls-2" d="M27.73,40.66s.89,3.42,1,3.68,1.26,3.07,2,3.55a12.68,12.68,0,0,0,2.07,1.29,15.26,15.26,0,0,0,3.69.74c.93,0,4.7-.2,5.65-.62a5.49,5.49,0,0,0,2.49-1.89,34,34,0,0,0,1.79-5.85c.2-1.26.14-2.89.68-3.49a2.13,2.13,0,0,1,1.73-.74,3.37,3.37,0,0,0,.88,0l15.85,6.62,1.45.22.3-.95L49.69,34.69s-2.73-.16-3-.16-5.33-.52-6.79-.4a49.08,49.08,0,0,0-7.36.89c-1.74.52-3.85,1.9-6.08,2.06a45,45,0,0,1-7.86-.6,20.67,20.67,0,0,0-4.88.4L9.07,38.51s-.22,0-.22.24,0,1.83,0,2,0,0,.18.06a3.38,3.38,0,0,1,.62,1.45,36.87,36.87,0,0,0,1.19,5.14c.42.78.5,2.23,2.05,3a9.44,9.44,0,0,0,4.18.77,16.71,16.71,0,0,0,3.63-.91l.35-.86a14.33,14.33,0,0,1-3.88,1.08c-1.47,0-4.16.12-4.76-1A9.7,9.7,0,0,1,11,46.1c-.08-1-.58-3-.56-3.89a4.55,4.55,0,0,1,.76-3,9.07,9.07,0,0,1,3.92-1.76,25.38,25.38,0,0,1,4.46-.22c1.22.22,2.31.32,2.9,1a3.3,3.3,0,0,1,1.11,2.53,22.48,22.48,0,0,1-.42,3.68l-.18.5a8.35,8.35,0,0,0,1-1.61c.2-.58.18-.86.52-1.2a6.17,6.17,0,0,0,.5-.55s-.34-.22-.26-1,.3-1.35.56-1.45.4-.3.75-.18a3.1,3.1,0,0,1,1.16.59C27.33,39.82,27.73,40.66,27.73,40.66Z"/><path class="cls-5" d="M42.59,48.28a11.58,11.58,0,0,1-1.36.61,31.73,31.73,0,0,1-5.13.31l-1.46-2s-1.76-.44-.52-.88,3.89-1,5.22,0A35,35,0,0,0,42.59,48.28Z"/><path class="cls-1" d="M45,44.6a10.93,10.93,0,0,1-.88,2.22,3.25,3.25,0,0,1-.8,1,7.52,7.52,0,0,1-.74.41,35,35,0,0,1-3.25-2c-1.33-1-4-.44-5.22,0s.52.88.52.88l1.46,2c-.45,0-.86,0-1.19-.05a6.65,6.65,0,0,1-3.72-1.92c-.4-.46-.67-1.08-.94-1.37a13.45,13.45,0,0,1-.8-2c-.16-.32-.38-1.45-.65-2.15a2,2,0,0,1-.17-1.33,5.8,5.8,0,0,0,0-1.16c2.52,1.3,5.56,4.46,6.63,5,1.39.66-1-6.31.55-7.1s5.42-1,6-.41a6.37,6.37,0,0,0,1.73.84l-.29-.21c-.87-.71-2.27-1.62-3.52-2.43a18.66,18.66,0,0,1,4,1c1.2.4.85.51,1.68,1.86a1.84,1.84,0,0,1,.19.47s0,0,0,0C46,40,45.18,43.74,45,44.6Z"/><path class="cls-4" d="M45.8,38.68c-.8-.3-3-.38-3.21-.61-.58-.57-2.89-.92-4.41-.13s-1.67,6.76-2.88,6.29-4.11-3.67-6.63-5c0-.13,0-.24,0-.34A1.49,1.49,0,0,1,29,38a5.59,5.59,0,0,1,.56-.83,16.25,16.25,0,0,1,4-1.77,36.07,36.07,0,0,1,5.79-.48l.41,0c1.25.81,2.65,1.72,3.52,2.43C43.38,37.42,45.7,38.61,45.8,38.68Z"/><path class="cls-2" d="M35.61,34.18s-.56-.08,0-.86,1.12-1.23,1.63-1.26,2.79-.35,4-.29a20.6,20.6,0,0,0,2.84.11,5,5,0,0,1,3.11.8c1.1.72,1.15.72,2,1.2s1.85,1,1.85,1l.29.43-2.16-1-1.8-.59s-.37-.28-1.77-.22a12,12,0,0,1-2.65,0,9.09,9.09,0,0,0-2.44,0,12.52,12.52,0,0,1-1.42.54c-.21,0-2.92.32-3.1.32S35.61,34.18,35.61,34.18Z"/><path class="cls-2" d="M21.33,36.56s1.05-.08.89-.67.4-.85-1-1.47A4.56,4.56,0,0,0,19,33.8a5.11,5.11,0,0,0-1.42,0c-.3.14-.43-.1-.67.33s-.46.74-.24,1,1.1.53,1.34.8.34.56.61.61S21.33,36.56,21.33,36.56Z"/><path class="cls-6" d="M36.41,41.57a4,4,0,0,1,1.5,0,27.26,27.26,0,0,0,5.14,0,15,15,0,0,1,2.74-.07c.59,0,1.94,0,1.94,0s-.55-1.41-1.19-1.56a23.89,23.89,0,0,1-3.21-1.39,4.89,4.89,0,0,0-2.79-.79,9.38,9.38,0,0,0-2.9,1.6A14.59,14.59,0,0,0,36.41,41.57Z"/><path class="cls-2" d="M38.53,38.82a1.9,1.9,0,0,0-.21,1.28c.21.53.07,1.13.83,1.26s1.83.51,2.29.07c.53-.25.61,0,.86-1.12s.53-1.05-.08-1.72-.29-.51-.62-.66C40.55,37.45,38.53,38.82,38.53,38.82Z"/><path class="cls-7" d="M23.11,42.59a3.69,3.69,0,0,0-.84-1.25,8.27,8.27,0,0,0-2.37-1.2,4.21,4.21,0,0,0-2.21.32,2.56,2.56,0,0,0-.6,2.13c.12.6.24.92.24,1.08s.44.29,1,0a4.7,4.7,0,0,0,1-.64,9,9,0,0,1,1.16-.28C21.22,42.63,23.11,42.59,23.11,42.59Z"/><path class="cls-2" d="M17.64,41.25s-.11,0,0,.48.18,1,.37,1.1a2.19,2.19,0,0,0,.72.35c.34.09,1-.35,1.16-.54s.48-.4.53-.72.16-.48.16-.67a8.17,8.17,0,0,0-.22-1l-2.06,0-.61.25Z"/><path class="cls-2" d="M66.67,45.74a9,9,0,0,0-1.33,1.51c-.12.36.88,1.4,1,1.12a13,13,0,0,0,.52-1.64A3.47,3.47,0,0,0,66.67,45.74Z"/><path class="cls-4" d="M68,45.92s0-.39-.24-.49a.35.35,0,0,1,0-.63c.28-.2,1.25-.52,1.41,0s1.12,1.77,1.2,2.05a17,17,0,0,1,.73,2.89,9.93,9.93,0,0,1-.53,2.41c-.28.36-.87,1.45-1.24,2.05s-1.09,2.13-1.57,2.29-1.25,1.26-1.65,1.7-.92,1.27-1.88,1.31a2.45,2.45,0,0,1-2-.5c-.36-.42.12-.9.68-1.14A2.52,2.52,0,0,0,64,57c.21-.28,1.17-1,1.61-.68s.93-.12,1.29-.24.32-.24.88-.6a2.36,2.36,0,0,0,.85-1c0-.12.52-1.32.56-1.44a2.91,2.91,0,0,0,.16-1,4.07,4.07,0,0,0-.2-1.59,3.73,3.73,0,0,0-.44-1.22c-.29-.7-.41-.87-.25-1.31a2.34,2.34,0,0,0,0-1.32A2.86,2.86,0,0,0,68,45.92Z"/><path class="cls-4" d="M64.7,48.28l-.6,1.28a2.44,2.44,0,0,0-.25,1.07,21.13,21.13,0,0,1,0,2.77c-.16.36-.84.84-1.12,1.36s-1,1.41-.65,1.45,1,.32,1.27,0,.5-.48.75-.72a1,1,0,0,0,0-1.21c-.29-.44.4-.56.56-.84a3.85,3.85,0,0,0,.2-1.12,1.13,1.13,0,0,1-.6-1A4.32,4.32,0,0,1,64.5,50c.12-.12.2-.09.4,0s0,.28.43,1.07.85,1.42.93,1.62.09.12,0,.37-.4.36-.44.92-.14,1-.49,1a3.68,3.68,0,0,0,1.26-.24c.28-.16,1-.44,1.08-.92s.52-1.39.52-1.56a1.7,1.7,0,0,0-.44-1.53c-.64-.65-1.25-1.48-1.65-1.59A6.69,6.69,0,0,1,64.7,48.28Z"/><path class="cls-2" d="M64.14,54.28c-.17.36-1.13,0-1.41.48s-1,1.41-.65,1.45,1,.32,1.27,0,.5-.48.75-.72a1,1,0,0,0,0-1.21"/></g><g id="Layer_7" data-name="Layer 7"><path class="cls-2" d="M19.7,65a2.26,2.26,0,0,0,.35-.43c.18-.3.24-.78.56-.49s.4.54.59.65-.18.46-.29.46-.3-.08-.44-.08-.14.05-.34.12S19.57,65.09,19.7,65Z"/></g></g></svg>