<svg xmlns="http://www.w3.org/2000/svg" viewBox="0 0 25.83 27.18"><defs><style>.cls-1{fill:#e5e3e3;}.cls-2{fill:#231f20;}.cls-3{fill:#4d4549;}.cls-4{fill:#8f8387;}.cls-5{fill:none;stroke:#000;stroke-miterlimit:10;stroke-width:0.5px;}</style></defs><title>Asset 3</title><g id="Layer_2" data-name="Layer 2"><g id="Layer_7" data-name="Layer 7"><path class="cls-1" d="M24.83,9.79C23.14,7.55,21.23,5.07,17,3.94,14.57,3.29,9.39,2.18,5.44,1.35H5.36l-.87-.18L3.34.92,2.82.81,1.89.62.32.3a11,11,0,0,0,0,2.59,57.42,57.42,0,0,0,1.09,5.9,26.92,26.92,0,0,0,.92,3.82c.48,1,2.92,4.82,3,6.67s-.27,1,.92,3.45,1.76,2.9,3.2,3.38a10.7,10.7,0,0,0,3.31.81c.43-.06,2.71,0,4.13,0h0a1.08,1.08,0,0,0,.24,0h.14l.73,0,.15-.08,6.6-3.38s0-.2.08-.56C25.22,20.58,26.29,11.73,24.83,9.79Z"/><path class="cls-2" d="M4,8.79a.91.91,0,0,1,.1-.42A7,7,0,0,1,5.25,6.74,4.16,4.16,0,0,1,6,6.19a10.14,10.14,0,0,0-1,.87c-.09.17-.62.87-.73,1.11S4,8.79,4,8.79Z"/><path class="cls-2" d="M7.11,9.7a.53.53,0,0,1-.47-.24,1.3,1.3,0,0,0-.37-.38s-.35-.14-.19-.29a.71.71,0,0,1,.7-.2,2.3,2.3,0,0,1,1,.2c.49.24,0,.29.75.4s.82.16,1.16.06,1.38-.14,1.48-.31.09-.34.35-.37a4.43,4.43,0,0,1,1,0,9.8,9.8,0,0,0,1,.09,8,8,0,0,0,.93.13c.12,0,1.74.27,1.84.27s1.92.39,2.15.36a4.63,4.63,0,0,1,.75-.21,1.8,1.8,0,0,1,.91.16,3.31,3.31,0,0,1,.65.48,4.86,4.86,0,0,1,.39.31s-.95.4-1.14.45a2.48,2.48,0,0,1-.79.1c-.14-.05-.49-.35-.49-.45s-.12-.36-.23-.39a9.55,9.55,0,0,1-1-.32,2.19,2.19,0,0,0-.67-.17c-.22,0-1.4-.39-1.49-.39a5,5,0,0,0-.68,0c-.26,0-.82,0-.82,0l-.68.1s0,.06-.35.19a1.29,1.29,0,0,1-.94,0,.84.84,0,0,0-.49-.11L9,9.49a1.11,1.11,0,0,0-.47,0c-.21.08-.4,0-.63.12A3.29,3.29,0,0,1,7.11,9.7Z"/><path class="cls-2" d="M18.17,9.79s-.14,0-.25.18a7.63,7.63,0,0,1-.66,1,13.42,13.42,0,0,1-1.58.95c-.29.13-2.34.66-2.34.66a19.78,19.78,0,0,0,4.23-1,9.37,9.37,0,0,1,1.25-.84,1.15,1.15,0,0,1,.37,0s.18-.38,0-.54A4.28,4.28,0,0,0,18.17,9.79Z"/><path class="cls-3" d="M16.43,9.49c.06.16.21,0,.15.29s.17.32-.13.39-.38.27-.85.24-.72-.29-.91-.13-.41.88-.91.92-1,.88-1.42.9-.72.52-1.6.32A16,16,0,0,1,9.19,12a2.79,2.79,0,0,0-.67-.12,3.31,3.31,0,0,1-.66.07,2.45,2.45,0,0,1-.73-.19c-.11,0,0,.16.14.31a1.77,1.77,0,0,0,.49.39c.09,0,.21.2-.11.2a2.12,2.12,0,0,1-.78-.16,1.28,1.28,0,0,0-.59,0,1.25,1.25,0,0,0,.38.28A7.55,7.55,0,0,0,7.78,13c.32,0,2-.18,2.53-.21l1.52-.06.75-.08c.29,0,.58,0,.76-.08a30.33,30.33,0,0,0,3.39-.95,14.85,14.85,0,0,0,1.75-1.58c.16-.23-1.05-.7-1.05-.7S16.38,9.33,16.43,9.49Z"/><path class="cls-2" d="M15.81,7.4S13.31,6.3,13,6.19a11.57,11.57,0,0,1-1.31-.58c-.13-.09.85.49.93.54S15.81,7.4,15.81,7.4Z"/><path class="cls-4" d="M24.91,22.9c-.05.36-.08.56-.08.56l-6.6,3.38a8.77,8.77,0,0,1-.88.06h-.14a1.08,1.08,0,0,1-.24,0h0l-.62-.15s.37-1,.79-2.09S22.27,23.36,24.91,22.9Z"/><path class="cls-5" d="M24.91,22.9c-.05.36-.08.56-.08.56l-6.6,3.38-.15.08-.73,0h-.43c-1.42,0-3.7,0-4.13,0a10.7,10.7,0,0,1-3.31-.81c-1.44-.48-2-.88-3.2-3.38s-.82-1.6-.92-3.45-2.55-5.63-3-6.67a26.92,26.92,0,0,1-.92-3.82A57.42,57.42,0,0,1,.32,2.89,11,11,0,0,1,.32.3L1.89.62l.93.19.52.11,1.15.24.87.18h.08c4,.83,9.13,1.94,11.57,2.59,4.22,1.13,6.13,3.61,7.82,5.85C26.29,11.73,25.22,20.58,24.91,22.9Z"/><path class="cls-2" d="M4.1,10.71a2.26,2.26,0,0,0,.35-.43c.19-.3.24-.78.56-.49s.4.54.59.65-.17.46-.28.46-.31-.08-.44-.08-.15,0-.35.12S4,10.84,4.1,10.71Z"/></g></g></svg>